<?xml version="1.0" standalone="no"?>
<!DOCTYPE svg PUBLIC "-//W3C//DTD SVG 20010904//EN"
 "http://www.w3.org/TR/2001/REC-SVG-20010904/DTD/svg10.dtd">
<svg version="1.0" xmlns="http://www.w3.org/2000/svg"
 width="256.000000pt" height="256.000000pt" viewBox="0 0 256.000000 256.000000"
 preserveAspectRatio="xMidYMid meet">
<metadata>
Created by potrace 1.16, written by Peter Selinger 2001-2019
</metadata>
<g transform="translate(0.000000,256.000000) scale(0.100000,-0.100000)"
fill="#000000" stroke="none">
<path d="M400 2441 c0 -4 5 -12 12 -19 10 -10 0 -25 -45 -69 l-57 -58 -63 63
-63 63 -25 -28 c-13 -15 -17 -22 -8 -16 13 10 25 2 74 -47 l59 -60 -59 -60
-59 -60 -23 22 c-22 21 -23 21 -23 2 0 -11 5 -25 12 -32 9 -9 9 -15 0 -24 -7
-7 -12 -21 -12 -32 0 -19 1 -19 23 2 l23 22 59 -60 59 -60 -59 -60 -59 -60
-23 22 -23 21 0 -24 c0 -14 5 -30 11 -36 8 -8 8 -13 0 -17 -13 -8 -15 -46 -2
-46 5 0 14 7 21 16 12 13 21 8 72 -43 l58 -57 -57 -58 -57 -58 -23 22 -23 21
0 -24 c0 -14 5 -30 11 -36 8 -8 8 -13 0 -17 -6 -4 -11 -19 -11 -33 l0 -26 23
21 23 22 47 -48 c26 -26 47 -57 47 -68 0 -11 -22 -41 -48 -67 -43 -42 -50 -46
-62 -33 -7 9 -16 16 -21 16 -13 0 -11 -34 2 -47 8 -8 8 -13 0 -17 -6 -4 -11
-19 -11 -33 l0 -26 23 21 23 22 52 -53 c29 -29 52 -57 52 -63 0 -5 -24 -33
-53 -62 -47 -47 -55 -51 -67 -38 -7 9 -16 16 -21 16 -13 0 -11 -34 2 -47 8 -8
8 -13 0 -17 -6 -4 -11 -19 -11 -33 l0 -26 23 21 23 22 59 -60 59 -60 -59 -60
-59 -60 -23 22 c-22 21 -23 21 -23 2 0 -11 5 -25 12 -32 9 -9 9 -15 0 -24 -7
-7 -12 -21 -12 -32 0 -19 1 -19 23 2 l23 22 59 -60 59 -60 -59 -60 -59 -60
-23 22 -23 21 0 -24 c0 -14 5 -30 11 -36 8 -8 8 -13 0 -17 -13 -8 -15 -46 -2
-46 5 0 14 7 21 16 12 13 21 8 72 -43 l58 -57 -57 -58 c-54 -54 -58 -57 -75
-41 -10 9 -21 13 -25 10 -3 -4 15 -28 41 -53 25 -26 49 -44 53 -40 4 3 -1 14
-10 23 -16 16 -14 21 40 75 l57 58 58 -57 58 -57 -22 -23 -21 -23 24 0 c14 0
30 5 35 10 8 8 15 6 23 -4 6 -8 21 -12 32 -9 l20 6 -20 21 -21 22 60 59 60 60
57 -57 57 -57 -23 -25 c-21 -22 -21 -24 -4 -28 10 -3 26 2 36 11 13 11 20 12
29 3 7 -7 21 -12 32 -12 19 0 19 1 -2 23 l-22 23 60 59 60 59 60 -59 60 -59
-21 -22 c-15 -16 -17 -23 -7 -27 7 -2 21 2 31 11 15 13 19 13 35 0 9 -8 25
-13 35 -10 17 4 17 6 -4 28 l-23 24 39 40 c22 22 46 40 55 40 13 0 13 2 0 11
-12 9 -12 10 3 5 10 -3 28 -6 40 -7 20 -1 20 -2 -3 -9 l-25 -8 25 -1 c16 -1
41 -16 63 -39 l38 -38 -21 -19 c-20 -18 -20 -20 -3 -26 10 -4 25 -1 34 7 14
13 18 13 28 0 6 -8 21 -12 32 -9 20 6 20 6 0 27 l-20 21 35 38 c30 33 42 39
87 42 41 3 45 2 22 -4 -28 -8 -28 -9 -5 -10 13 0 39 -15 57 -33 l33 -32 -21
-22 c-20 -21 -20 -21 0 -27 11 -3 26 1 32 9 10 13 14 13 28 0 9 -8 24 -11 34
-7 17 6 17 8 -3 26 l-21 19 58 58 57 58 58 -57 58 -57 -22 -23 -21 -23 24 0
c14 0 30 5 35 10 8 8 15 6 23 -4 6 -8 21 -12 32 -9 l20 6 -20 21 -21 22 60 59
60 59 60 -59 60 -59 -21 -22 c-15 -16 -17 -23 -7 -27 7 -2 21 2 31 11 15 14
19 14 35 0 9 -9 23 -13 30 -11 10 4 8 11 -7 27 l-21 22 60 59 60 59 58 -57
c32 -31 63 -57 70 -57 25 0 10 26 -45 82 l-57 58 54 55 c38 39 60 53 72 49 15
-5 18 1 18 37 0 33 -3 39 -13 31 -10 -9 -27 2 -72 48 l-59 60 54 55 c35 36 60
53 71 50 12 -4 16 3 17 36 2 34 -1 40 -16 35 -12 -4 -34 10 -72 49 l-54 55 54
55 c38 39 60 53 72 49 15 -4 18 1 18 36 0 35 -3 40 -18 36 -12 -4 -34 10 -72
49 l-54 55 59 60 c45 46 62 57 72 48 10 -8 13 -2 13 31 0 36 -3 42 -18 37 -12
-4 -34 11 -75 52 l-57 58 58 57 c41 41 63 56 75 51 14 -5 17 1 17 36 0 34 -3
40 -13 32 -10 -9 -27 2 -72 48 l-59 60 54 55 c38 39 60 53 72 49 15 -4 18 1
18 36 0 35 -3 40 -18 36 -12 -4 -34 10 -72 49 l-54 55 54 55 c30 30 61 54 70
52 11 -1 16 9 18 36 3 34 1 38 -15 33 -14 -4 -34 9 -73 49 l-54 55 57 58 c45
45 55 60 45 70 -10 10 -25 0 -70 -45 l-58 -58 -57 58 c-45 44 -55 59 -45 69
21 21 14 26 -38 26 -52 0 -59 -5 -38 -26 10 -10 0 -25 -45 -69 l-57 -58 -60
60 c-54 54 -58 60 -44 76 14 15 11 17 -35 17 -53 0 -60 -5 -39 -26 10 -10 0
-25 -45 -69 l-57 -58 -60 60 c-39 39 -56 63 -50 69 19 19 10 24 -35 24 -45 0
-54 -5 -35 -24 6 -6 -11 -30 -50 -69 l-60 -60 -57 58 c-45 44 -55 59 -45 69
21 21 14 26 -39 26 -46 0 -49 -2 -35 -17 14 -16 10 -22 -44 -76 l-60 -60 -57
58 c-45 44 -55 59 -45 69 21 21 14 26 -38 26 -52 0 -59 -5 -37 -27 10 -10 2
-22 -40 -62 -28 -27 -58 -49 -65 -49 -8 0 -36 22 -63 50 -38 39 -46 53 -37 62
21 21 13 26 -38 26 -52 0 -59 -5 -38 -26 10 -10 0 -25 -45 -69 l-57 -58 -60
60 c-54 54 -58 60 -44 76 14 15 11 17 -35 17 -28 0 -51 -3 -51 -7z m107 -228
l-57 -58 -60 60 -60 59 57 58 58 58 60 -60 60 -60 -58 -57z m855 11 c-26 -28
-56 -52 -67 -53 -13 -1 -41 19 -70 49 l-49 50 59 60 59 60 58 -57 57 -57 -47
-52z m273 -14 l-60 -60 -60 60 -59 60 59 60 60 60 60 -60 60 -60 -60 -60z
m282 3 l-57 -58 -60 60 -60 59 57 58 58 58 60 -60 60 -60 -58 -57z m-1128 113
l52 -53 -36 -22 c-41 -24 -49 -26 -39 -9 4 7 3 8 -5 4 -6 -4 -9 -11 -6 -15 2
-5 -13 -20 -35 -35 -22 -14 -72 -56 -112 -93 -40 -37 -70 -63 -65 -58 4 5 -9
26 -30 47 l-37 38 57 57 57 57 39 -38 39 -38 36 27 c42 32 48 43 10 19 -25
-17 -26 -17 -62 19 l-36 37 54 55 c30 30 57 55 60 55 3 0 29 -24 59 -54z m281
-1 l55 -55 -57 -57 c-55 -54 -58 -56 -76 -40 -10 9 -22 14 -27 10 -5 -5 4 14
19 40 19 34 26 56 21 74 -4 18 -3 23 7 17 10 -6 9 -3 -1 9 -7 9 -19 17 -25 17
-7 0 -7 -3 1 -8 8 -5 -2 -8 -23 -8 -34 0 -35 1 -13 10 13 6 30 19 37 28 7 10
16 18 20 18 4 0 32 -25 62 -55z m1130 0 l55 -55 -58 -58 -57 -57 -57 57 -58
58 55 55 c30 30 57 55 60 55 3 0 30 -25 60 -55z m-1835 -255 l-60 -60 -60 60
-59 60 59 60 60 60 60 -60 60 -60 -60 -60z m1410 0 l-60 -60 -60 60 -59 60 59
60 60 60 60 -60 60 -60 -60 -60z m-584 135 c32 -29 36 -35 19 -35 -11 0 -29
-9 -40 -20 -11 -11 -20 -16 -20 -11 0 6 10 17 22 25 12 9 17 16 11 16 -17 0
-38 -31 -39 -59 -1 -27 21 -61 40 -61 6 0 0 7 -12 16 -12 8 -22 19 -22 25 0 5
9 0 20 -11 11 -11 25 -20 31 -20 6 0 -4 -12 -21 -27 l-32 -26 -56 56 -57 57
55 55 c30 30 56 55 58 55 3 0 22 -16 43 -35z m869 -20 l55 -55 -58 -58 -57
-57 -57 57 -58 58 55 55 c30 30 57 55 60 55 3 0 30 -25 60 -55z m280 0 l55
-55 -58 -58 -57 -57 -57 57 -58 58 55 55 c30 30 57 55 60 55 3 0 30 -25 60
-55z m-1511 -67 c-22 -57 -36 -79 -24 -38 4 14 4 22 0 18 -5 -4 -14 -3 -21 3
-11 9 -25 2 -61 -29 -27 -22 -59 -53 -73 -68 -13 -16 -4 -11 20 12 73 65 78
68 95 54 8 -7 15 -22 16 -34 0 -20 1 -21 9 -1 14 33 10 5 -10 -75 -10 -42 -19
-64 -20 -50 -2 21 -3 22 -7 5 -10 -42 -23 -39 -76 13 -45 45 -56 51 -66 39
-10 -12 -2 -24 41 -65 l53 -51 -60 -60 -59 -61 -41 40 c-23 22 -45 37 -49 33
-5 -5 -2 6 7 22 46 91 191 246 291 313 27 17 51 32 53 32 1 0 -7 -24 -18 -52z
m840 -157 c-21 -27 -29 -31 -61 -27 -27 3 -41 -1 -50 -13 -10 -13 -10 -14 2
-3 22 19 32 14 13 -6 -17 -17 -20 -16 -68 30 l-50 47 60 61 60 60 59 -59 59
-59 -24 -31z m-1175 100 l37 -38 -52 -69 c-28 -38 -53 -70 -55 -71 -2 -2 -2 0
0 3 2 3 -18 26 -46 51 l-49 47 58 58 c31 32 60 58 63 58 3 0 23 -17 44 -39z
m576 -16 l55 -55 -58 -58 -57 -57 -57 57 -58 58 55 55 c30 30 57 55 60 55 3 0
30 -25 60 -55z m850 0 l54 -55 -59 -60 -59 -60 -58 57 -58 57 57 58 c32 32 60
58 63 58 3 0 30 -25 60 -55z m280 0 l55 -55 -58 -58 -57 -57 -57 57 -58 58 55
55 c30 30 57 55 60 55 3 0 30 -25 60 -55z m-1837 -134 c25 -27 49 -46 52 -42
4 3 -3 -15 -16 -41 -12 -26 -25 -46 -27 -44 -2 2 4 18 13 35 8 17 13 31 11 31
-3 0 -13 -15 -22 -32 -9 -18 -28 -45 -42 -61 l-26 -27 -58 57 -58 57 57 58
c32 32 60 58 64 58 3 0 27 -22 52 -49z m817 24 l23 -25 -32 -45 c-31 -43 -31
-46 -17 -74 9 -16 20 -31 26 -33 6 -2 2 -8 -8 -15 -17 -10 -27 -4 -78 48 l-58
59 54 55 c30 30 57 55 60 55 4 0 17 -11 30 -25z m313 -33 l57 -57 -55 -57
c-40 -43 -59 -56 -72 -51 -14 5 -11 8 12 15 28 7 55 32 55 50 0 4 -9 17 -20
28 -11 11 -16 20 -11 20 6 0 17 -10 25 -22 9 -12 16 -17 16 -11 0 27 -33 37
-109 34 l-76 -3 55 56 c30 31 57 56 60 56 3 0 31 -26 63 -58z m567 3 l54 -55
-59 -60 -59 -60 -58 57 -58 57 57 58 c32 32 60 58 63 58 3 0 30 -25 60 -55z
m280 0 l55 -55 -58 -58 -57 -57 -57 57 -58 58 55 55 c30 30 57 55 60 55 3 0
30 -25 60 -55z m-1584 -182 c-1 -76 -4 -124 -7 -108 -5 22 -7 24 -8 8 -2 -38
-16 -33 -74 25 l-57 58 60 59 c50 49 62 57 70 45 7 -11 10 -7 10 18 0 17 1 32
3 32 2 0 3 -62 3 -137z m317 39 l57 -58 -58 -57 -58 -57 -59 60 -59 60 54 55
c30 30 57 55 60 55 3 0 31 -26 63 -58z m546 -14 c-5 -10 -14 -16 -19 -13 -5 3
-12 0 -16 -6 -5 -8 -3 -9 6 -4 8 5 11 3 8 -6 -3 -8 -10 -14 -15 -14 -6 0 -15
-4 -20 -9 -5 -5 -3 -6 5 -2 16 10 15 0 -4 -29 -12 -18 -13 -28 -4 -44 6 -12
16 -21 22 -21 6 0 8 -3 5 -6 -4 -4 -34 19 -67 52 l-60 58 57 58 57 58 28 -27
c22 -21 25 -30 17 -45z m301 17 l54 -55 -59 -60 -59 -60 -23 22 c-13 12 -21
29 -18 36 6 16 -21 52 -39 52 -6 0 0 -7 12 -16 12 -8 22 -21 21 -27 0 -8 -2
-8 -6 1 -3 7 -18 19 -35 28 l-31 16 59 59 c32 32 61 59 64 59 3 0 30 -25 60
-55z m280 0 l54 -55 -59 -60 -59 -60 -58 57 -58 57 57 58 c32 32 60 58 63 58
3 0 30 -25 60 -55z m-808 -39 c16 -23 16 -24 -40 -79 l-58 -57 -59 60 c-58 58
-58 60 -40 80 15 17 30 20 99 20 73 -1 83 -3 98 -24z m-742 -101 l54 -55 -59
-60 -59 -60 -58 57 -58 57 57 58 c32 32 60 58 63 58 3 0 30 -25 60 -55z m218
15 l2 44 60 -59 61 -60 -50 -47 c-27 -26 -51 -53 -54 -60 -6 -19 -28 87 -31
157 -3 49 -2 53 4 20 l7 -40 1 45z m345 -18 l57 -58 -58 -57 -58 -57 -59 60
-59 60 54 55 c30 30 57 55 60 55 3 0 31 -26 63 -58z m847 3 l54 -55 -59 -60
-59 -60 -58 57 -58 57 57 58 c32 32 60 58 63 58 3 0 30 -25 60 -55z m283 -3
l57 -58 -60 -59 -60 -59 -60 59 -60 59 57 58 c32 32 60 58 63 58 3 0 31 -26
63 -58z m-525 -45 c10 -8 0 -24 -45 -69 l-57 -58 -57 56 c-78 77 -72 86 50 83
53 -1 102 -7 109 -12z m-1315 -209 l-57 -58 -28 27 c-21 20 -28 37 -29 67 l-2
41 -7 -40 -7 -40 0 40 c-1 22 3 54 7 70 7 29 8 29 10 5 2 -21 3 -22 7 -5 3 11
14 30 26 43 l21 22 58 -57 58 -57 -57 -58z m253 149 c11 -12 26 -43 32 -68 6
-26 14 -55 17 -65 3 -11 -2 -5 -10 11 l-15 30 5 -30 c5 -25 0 -36 -25 -60
l-30 -29 -60 59 -60 59 57 58 c32 32 60 58 63 58 3 0 14 -10 26 -23z m317 -35
l57 -58 -60 -59 -61 -60 -49 52 c-28 28 -50 46 -51 40 0 -7 -4 -3 -9 8 -12 27
-12 43 0 25 8 -13 10 -13 10 0 0 13 88 110 100 110 3 0 31 -26 63 -58z m253
46 c5 4 6 3 1 -2 -4 -5 0 -17 9 -27 14 -16 14 -20 -5 -56 -11 -21 -20 -33 -20
-28 0 6 6 21 14 35 8 14 14 30 14 35 0 6 -7 -3 -16 -20 -23 -42 -25 -91 -5
-107 14 -10 15 -10 5 2 -20 22 -15 32 5 13 16 -17 16 -19 -8 -40 l-25 -22 -58
57 -57 56 57 58 c39 40 60 54 68 48 7 -6 16 -6 21 -2z m307 -160 l-57 -58 -34
33 c-19 17 -43 45 -53 62 l-19 30 52 52 52 53 58 -57 58 -57 -57 -58z m280 0
l-57 -58 -58 57 -58 57 57 58 57 58 58 -57 58 -57 -57 -58z m290 114 l57 -58
-60 -59 -60 -59 -60 59 -60 59 57 58 c32 32 60 58 63 58 3 0 31 -26 63 -58z
m-1556 -259 l-57 -58 -60 60 -60 59 57 58 58 58 60 -60 60 -60 -58 -57z m563
2 l-60 -60 -57 58 -58 57 60 60 59 60 58 -57 58 -58 -60 -60z m563 3 l-57 -58
-58 57 -58 57 57 58 57 58 58 -57 58 -57 -57 -58z m284 -5 l-57 -58 -60 60
-60 59 57 58 58 58 60 -60 60 -60 -58 -57z m286 119 l57 -58 -60 -59 -60 -59
-60 59 -60 59 57 58 c32 32 60 58 63 58 3 0 31 -26 63 -58z m-825 -26 l32 -30
-57 -58 -57 -58 -58 57 -57 56 27 33 c25 31 31 33 82 32 46 -1 60 -7 88 -32z
m-1010 -233 c-49 -48 -59 -55 -72 -44 -9 8 -16 21 -17 30 0 12 -2 11 -8 -4 -7
-16 -11 -9 -20 33 -16 78 -14 93 21 129 l32 33 61 -60 60 -60 -57 -57z m279 0
l-57 -58 -60 60 -60 59 57 58 58 58 60 -60 60 -60 -58 -57z m563 2 l-60 -60
-57 58 -58 57 60 60 59 60 58 -57 58 -58 -60 -60z m283 3 l-57 -58 -58 57 -58
57 57 58 57 58 58 -57 58 -57 -57 -58z m284 -5 l-57 -58 -60 60 -60 59 57 58
58 58 60 -60 60 -60 -58 -57z m280 0 l-57 -58 -60 60 -60 59 57 58 58 58 60
-60 60 -60 -58 -57z m-1550 -140 l-57 -58 -60 60 -60 59 57 58 58 58 60 -60
60 -60 -58 -57z m597 36 c-22 -23 -23 -27 -9 -39 13 -11 18 -8 36 15 l22 27
58 -58 c40 -40 55 -61 49 -69 -6 -7 -6 -15 -2 -20 14 -15 -63 28 -122 68 -45
30 -200 170 -178 160 2 -1 16 12 30 28 l25 30 58 -57 59 -58 -26 -27z m246
-34 l-60 -60 -57 58 -58 57 60 60 59 60 58 -57 58 -58 -60 -60z m287 -2 l-57
-58 -60 60 -60 59 57 58 58 58 60 -60 60 -60 -58 -57z m280 0 l-57 -58 -60 60
-60 59 57 58 58 58 60 -60 60 -60 -58 -57z m-1127 112 l55 -55 -58 -58 -57
-57 -57 57 -58 58 55 55 c30 30 57 55 60 55 3 0 30 -25 60 -55z m1410 0 l55
-55 -58 -58 -57 -57 -57 57 -58 58 55 55 c30 30 57 55 60 55 3 0 30 -25 60
-55z m-1996 -125 c5 -19 5 -21 -3 -10 -9 13 -11 13 -11 -2 0 -36 -24 -28 -81
28 l-59 58 42 43 c30 30 44 39 50 30 5 -8 8 -6 8 8 1 11 11 -14 24 -55 12 -41
26 -86 30 -100z m1300 -121 l-51 -51 -43 13 c-24 7 -38 15 -32 17 6 2 -6 18
-26 37 l-37 34 60 61 60 60 60 -60 60 -60 -51 -51z m273 -6 l-57 -58 -60 60
-60 59 57 58 58 58 60 -60 60 -60 -58 -57z m-1127 112 l55 -55 -58 -58 -57
-57 -57 57 -58 58 55 55 c30 30 57 55 60 55 3 0 30 -25 60 -55z m280 0 l55
-55 -58 -58 -57 -57 -57 57 -58 58 55 55 c30 30 57 55 60 55 3 0 30 -25 60
-55z m1130 0 l54 -55 -24 -25 c-16 -17 -19 -25 -9 -26 18 0 -66 -34 -106 -42
-16 -3 -24 -4 -17 0 10 4 1 18 -29 49 l-43 44 54 55 c30 30 57 55 60 55 3 0
30 -25 60 -55z m-1835 -255 l-60 -60 -60 60 -59 60 59 60 60 60 60 -60 60 -60
-60 -60z m285 114 l55 -55 -36 -34 c-32 -29 -35 -35 -22 -48 13 -13 19 -10 49
22 l33 36 58 -57 57 -57 -24 -26 c-13 -14 -27 -25 -31 -25 -4 0 -33 21 -66 46
-59 47 -31 17 42 -44 38 -32 38 -32 5 -11 -50 32 -180 165 -220 223 -18 27
-29 46 -23 43 6 -4 21 5 33 18 13 14 26 25 30 25 3 0 30 -25 60 -56z m280 1
l55 -55 -58 -58 -57 -57 -57 57 -58 58 55 55 c30 30 57 55 60 55 3 0 30 -25
60 -55z m280 0 l55 -55 -58 -58 -57 -57 -57 57 -58 58 55 55 c30 30 57 55 60
55 3 0 30 -25 60 -55z m1130 0 l55 -55 -58 -57 -57 -58 -21 22 c-21 21 -22 23
-5 50 10 16 3 11 -16 -12 -18 -22 -57 -67 -88 -100 l-54 -60 60 58 60 58 19
-21 c19 -21 18 -21 -38 -77 l-56 -57 -24 22 c-13 12 -28 19 -32 15 -5 -5 19
23 54 61 34 38 76 87 93 110 16 22 33 41 38 41 5 0 12 4 17 9 4 5 3 6 -4 2 -9
-5 -11 1 -7 23 5 23 2 32 -14 42 -19 12 -19 14 -4 26 9 7 19 13 22 13 3 0 30
-25 60 -55z m-1853 -100 c5 -4 2 -5 -4 -1 -24 14 -12 -9 28 -54 l41 -45 -33
45 c-20 25 10 0 70 -60 58 -58 106 -110 107 -116 1 -7 -24 -37 -55 -68 l-57
-56 -57 58 -58 58 59 56 c51 49 57 59 45 71 -12 12 -22 6 -71 -45 l-56 -59
-58 58 -58 57 57 58 c54 54 80 66 100 43z m583 -40 l55 -55 -58 -58 -57 -57
-57 57 -58 58 55 55 c30 30 57 55 60 55 3 0 30 -25 60 -55z m283 -3 l57 -58
-58 -57 -58 -57 -59 60 -59 60 54 55 c30 30 57 55 60 55 3 0 31 -26 63 -58z
m232 32 c17 -4 48 -24 70 -46 l40 -38 -60 -60 -60 -60 -60 60 -59 60 43 44
c30 31 39 45 29 50 -13 6 -3 4 57 -10z m447 -22 c-13 -4 -23 -11 -22 -17 1 -5
-3 -11 -9 -13 -6 -2 -11 1 -11 7 0 6 -16 11 -36 11 l-35 0 28 -24 28 -25 -43
-43 c-23 -25 -39 -48 -35 -53 5 -4 2 -5 -4 -1 -7 4 -21 2 -30 -4 -17 -11 -17
-11 0 -6 24 8 21 -1 -5 -15 -13 -6 -20 -8 -15 -3 4 4 -17 33 -47 63 l-55 56
23 26 c20 23 33 27 132 36 60 5 120 10 134 10 25 1 25 1 2 -5z m-1662 -147
l54 -55 -59 -60 -59 -60 -58 57 -58 57 57 58 c32 32 60 58 63 58 3 0 30 -25
60 -55z m843 -3 l58 -59 -45 -41 c-25 -23 -40 -42 -34 -42 6 0 9 -2 6 -5 -3
-3 -29 0 -59 6 -43 9 -50 13 -34 20 14 5 15 8 4 8 -8 1 -28 15 -44 31 l-29 30
54 55 c30 30 57 55 60 55 3 0 32 -26 63 -58z m279 1 l58 -57 -42 -43 c-58 -59
-89 -58 -148 2 l-44 45 54 55 c30 30 57 55 59 55 3 0 31 -26 63 -57z m286 4
l53 -54 -68 -30 c-77 -34 -139 -53 -78 -24 45 22 43 26 -4 10 -28 -10 -35 -9
-57 12 l-24 23 57 58 c32 32 60 58 63 58 3 0 29 -24 58 -53z m565 -5 l57 -58
-58 -57 -58 -57 -59 60 -59 60 54 55 c30 30 57 55 60 55 3 0 31 -26 63 -58z
m-1833 -137 l54 -55 -59 -60 -59 -60 -58 57 -58 57 57 58 c32 32 60 58 63 58
3 0 30 -25 60 -55z m280 0 l54 -55 -59 -60 -59 -60 -58 57 -58 57 57 58 c32
32 60 58 63 58 3 0 30 -25 60 -55z m1413 -3 l57 -58 -60 -59 -60 -59 -60 59
-60 59 57 58 c32 32 60 58 63 58 3 0 31 -26 63 -58z m-295 22 c-4 -3 10 -21
30 -39 l37 -34 -59 -60 -60 -61 -60 58 -61 57 85 42 c89 43 97 47 88 37z"/>
</g>
</svg>
